# xmcd
#
# Track frame offsets: 
#        150
#        14482
#        27752
#        41288
#        53256
#        70065
#        88725
#        100088
#        115562
#        133767
#        148321
#        159605
#        172755
#        184937
#        196456
#        215444
#        228587
#        244506
#        260078
#        272132
#        285611
#
# Disc length: 4168 seconds
#
# Revision: 1
# Processed by: cddbd v1.5.2PL0 Copyright (c) Steve Scherf et al.
# Submitted via: ExactAudioCopy v0.99pb4
#
DISCID=27104615
DTITLE=Various Artist - Country's Most Wanted Vol 2
DYEAR=1900
DGENRE=Country
TTITLE0=Dave Rowland and Sugar - Queen Of The Silver Dollar
TTITLE1=Kathy Mattea - Ball And Chain
TTITLE2=Freddy Weller - Games People Play
TTITLE3=Mickey GilleyYou Dont Know Me
TTITLE4=Terri Gibbs - Rich Man
TTITLE5=Razzy Bailey - I Keep Coming Back
TTITLE6=Tom T. Hall - Ravishing Ruby
TTITLE7=Tanya Tucker - You Are So Beautifull
TTITLE8=Charlie Rich - Nice N' Easy
TTITLE9=Tammy Wynette - Crying In The Rain
TTITLE10=Mel Tillis - Believe In You
TTITLE11=Moe Bandy - Rodeo Romeo
TTITLE12=Sweethearts Of The Rodeo - Hey Doll Baby
TTITLE13=Eddy Raven - Thank God For Kids
TTITLE14=Freddy Fender - Secret Love
TTITLE15=Lorrie Morgan - Love Is Fair
TTITLE16=Earl Thomas Conley - Angel In Disguise
TTITLE17=Lee Greenwood - Fool's Of Gold
TTITLE18=Lynn Anderson - I've Never Loved Anyone More
TTITLE19=Ronny Robbins - El Paso
TTITLE20=The Osmonds - American Trilogy
EXTD=
EXTT0=
EXTT1=
EXTT2=
EXTT3=
EXTT4=
EXTT5=
EXTT6=
EXTT7=
EXTT8=
EXTT9=
EXTT10=
EXTT11=
EXTT12=
EXTT13=
EXTT14=
EXTT15=
EXTT16=
EXTT17=
EXTT18=
EXTT19=
EXTT20=
PLAYORDER=
